<?xml version="1.0" encoding="UTF-8"?><svg id="_レイヤー_2" xmlns="http://www.w3.org/2000/svg" viewBox="0 0 959.51 235.74"><g id="_デザイン"><path d="m115.54,188.11l-62,41.63L6,158.94l62-41.63,47.54,70.8Zm-60.15-55.76l-30.78,20.67,18.55,27.62,30.78-20.67-18.55-27.62Zm10.67,82.41l30.78-20.67-19.87-29.59-30.78,20.67,19.87,29.59Z" style="fill:#eb6887; stroke:#eb6887; stroke-linecap:round; stroke-linejoin:round; stroke-width:12px;"/><path d="m204.12,126.17l-1.72,5.19c-18.67-6.23-35.6-15.63-50.98-28.33l16.77,36.96,14.07-6.39,2.21,4.88-14.07,6.39,7.75,17.07-18.57,8.43-7.75-17.07-14.44,6.56-2.21-4.88,14.44-6.56-16.77-36.96c-.32,19.49-4.26,38.47-11.6,57.19l-5.13-2.08c7.53-18.8,11.28-37.7,11.26-56.69l-29.45,13.37-2.26-4.97,33.39-15.16-8.26-18.2,18.57-8.43,8.26,18.2,33.67-15.28,2.26,4.97-29.73,13.5c14.6,12.49,31.35,21.97,50.29,28.3Z" style="fill:#eb6887; stroke:#eb6887; stroke-linecap:round; stroke-linejoin:round; stroke-width:12px;"/><path d="m216.29,64.83c-6.61-2.95-12.93-5.23-18.95-6.85l1.67-5.07c5.7,1.6,12.11,3.86,19.2,6.99l-1.93,4.93Zm3.95,25.75c-7.39-3.05-13.65-5.14-18.56-6.21l1.44-5.12c5.03,1.15,11.42,3.3,19.07,6.5l-1.95,4.83Zm4.92,9.1l5.15.79c-.69,15.39-3.3,29.62-7.66,42.62l-4.97-1.7c4.38-12.9,6.86-26.87,7.49-41.71Zm44.61-58.83l3.92,13.88,12.69-3.58,18.97,67.2-58.78,16.59-18.97-67.2,13.68-3.86-3.92-13.88-17.25,4.87-1.43-5.05,65.92-18.61,1.43,5.06-16.26,4.59Zm-26.74,58.81c1.51-3.74,2.44-6.9,2.71-9.75.52-4.96-.12-10.67-1.89-16.91l-1.12-3.96-8.62,2.43,10.69,37.86,48.67-13.74-3.39-11.99c-2.99,1.16-11.95,3.91-26.72,8.08l-7.44-26.37-8.13,2.29,1.12,3.96c3.02,10.71,2.65,20.76-.94,30.02l-4.93-1.92Zm7.51-53.38l-8.13,2.29,3.92,13.88,8.13-2.29-3.92-13.88Zm-.37,82.08l48.67-13.74-3.95-13.98-48.67,13.74,3.95,13.98Zm24.97-68.48l5.99,21.21c3.67-1.04,6.12-1.83,7.55-2.45l-5.9-20.92-7.63,2.16Z" style="fill:#eb6887; stroke:#eb6887; stroke-linecap:round; stroke-linejoin:round; stroke-width:12px;"/><path d="m387.42,27.07l10.08,70.56-76.57,10.94-.87-6.12,52.61-7.52-8.33-58.32-52,7.43-.87-6.12,75.96-10.86Zm-6.31-12.83c1.05.79,1.59,1.65,1.78,2.97.17,1.22-.09,2.3-.89,3.25-.79,1.05-1.73,1.7-2.96,1.88-1.22.17-2.21-.2-3.26-.99-1.03-.68-1.69-1.63-1.86-2.85-.19-1.33.19-2.32.98-3.36.8-.95,1.66-1.49,2.88-1.66,1.22-.17,2.3.09,3.34.77Zm13.81,1.25c.19,1.33-.07,2.4-.87,3.35-.68,1.03-1.65,1.59-2.97,1.78-1.33.19-2.32-.19-3.26-.99-1.03-.68-1.59-1.65-1.76-2.87-.19-1.33.09-2.3.87-3.35.7-.93,1.56-1.47,2.88-1.66,2.96-.42,4.71.89,5.11,3.74Z" style="fill:#eb6887; stroke:#eb6887; stroke-linecap:round; stroke-linejoin:round; stroke-width:12px;"/><path d="m414.76,60.02l-.2-6.79,69.52-2.06.2,6.79-69.52,2.06Z" style="fill:#eb6887; stroke:#eb6887; stroke-linecap:round; stroke-linejoin:round; stroke-width:12px;"/><path d="m535.44,70.31c-10.17,14.02-25.93,23.45-47.01,28.73l-1.7-5.89c8.8-2.13,16.74-5.25,23.6-9.25l2.99-47.6,24.16,1.52-2.04,32.48Zm39.21-50.89c-3.41,18.16-14.05,31.42-31.79,39.49l-2.95-5.65c13.37-5.87,22.12-15.33,26.23-28.28l-78.44-4.92.38-6.07,86.56,5.43Z" style="fill:#eb6887; stroke:#eb6887; stroke-linecap:round; stroke-linejoin:round; stroke-width:12px;"/><path d="m661.37,84.7c-15.64,17.29-39.46,24.66-71.39,21.88l.36-6.11c17.61,1.58,32.31.12,43.91-4.5l6.18-34.58-56.27-10.05,1.05-5.88,80.61,14.4-4.44,24.84Zm2.02-44.11l-67.53-12.06,1.05-5.88,67.53,12.06-1.05,5.88Z" style="fill:#eb6887; stroke:#eb6887; stroke-linecap:round; stroke-linejoin:round; stroke-width:12px;"/><path d="m753.46,109.52c-9.23,7.81-18.01,13.16-26.33,15.64-12.76,3.9-28.43,3.99-47.1.23l.99-5.95c18.06,3.68,33,3.48,44.69-.44l13.77-44.25-45.73-14.23-8.02,25.77-6.69-2.08,9.79-31.47,33.04,10.28,5.26-16.92,7.08,2.2-5.26,16.92,34.91,10.87-10.41,33.44Z" style="fill:#eb6887; stroke:#eb6887; stroke-linecap:round; stroke-linejoin:round; stroke-width:12px;"/><path d="m846.11,139.01c-14.02,8.94-28.89,13.85-44.9,14.83-14.26.88-29.95-1.51-47.12-7.08l1.66-6.04c22.38,7.31,42.51,8.69,60.21,4.29l18.1-39.06,22.52,10.44-10.48,22.61Zm-41.79-31.06c-4.53-9.82-11.15-20.04-19.49-30.94l5.29-3.57c8.56,10.44,15.28,21.16,20.16,31.7l-5.95,2.8Z" style="fill:#eb6887; stroke:#eb6887; stroke-linecap:round; stroke-linejoin:round; stroke-width:12px;"/><path d="m912.21,199.75c-6.72-12.5-15.5-25.25-26.32-38.45l-28.54,43.73-19.93-13,49.37-75.65,19.93,13-17.17,26.31c11.42,13.6,20.81,27.11,28.2,40.66l-5.54,3.4Zm18.65-46.86c.27,1.28-.09,2.4-.77,3.44-.67,1.04-1.5,1.73-2.78,2-1.28.27-2.46,0-3.49-.68-1.04-.67-1.67-1.58-1.94-2.87s.03-2.31.71-3.35c.68-1.04,1.55-1.81,2.84-2.08,1.28-.27,2.31.04,3.35.71,1.04.68,1.82,1.55,2.08,2.84Zm10.18,6.64c.18,1.23-.09,2.4-.77,3.44-.68,1.03-1.58,1.67-2.78,2-1.28.27-2.37.05-3.41-.62-1.04-.67-1.67-1.58-1.94-2.87-.18-1.23-.05-2.37.62-3.41.67-1.04,1.72-1.7,2.92-2.03,1.28-.27,2.31.03,3.35.71,1.04.67,1.73,1.5,2,2.78Z" style="fill:#eb6887; stroke:#eb6887; stroke-linecap:round; stroke-linejoin:round; stroke-width:12px;"/><path d="m115.54,182.44l-62,41.63L6,153.27l62-41.63,47.54,70.8Zm-60.15-55.76l-30.78,20.67,18.55,27.62,30.78-20.67-18.55-27.62Zm10.67,82.41l30.78-20.67-19.87-29.59-30.78,20.67,19.87,29.59Z" style="fill:#fff; stroke:#fff; stroke-linecap:round; stroke-linejoin:round; stroke-width:12px;"/><path d="m204.12,120.5l-1.72,5.19c-18.67-6.23-35.6-15.63-50.98-28.33l16.77,36.96,14.07-6.39,2.21,4.88-14.07,6.39,7.75,17.07-18.57,8.43-7.75-17.07-14.44,6.56-2.21-4.88,14.44-6.56-16.77-36.96c-.32,19.49-4.26,38.47-11.6,57.19l-5.13-2.08c7.53-18.8,11.28-37.7,11.26-56.69l-29.45,13.37-2.26-4.97,33.39-15.16-8.26-18.2,18.57-8.43,8.26,18.2,33.67-15.28,2.26,4.97-29.73,13.5c14.6,12.49,31.35,21.97,50.29,28.3Z" style="fill:#fff; stroke:#fff; stroke-linecap:round; stroke-linejoin:round; stroke-width:12px;"/><path d="m216.29,59.16c-6.61-2.95-12.93-5.23-18.95-6.85l1.67-5.07c5.7,1.6,12.11,3.86,19.2,6.99l-1.93,4.93Zm3.95,25.75c-7.39-3.05-13.65-5.14-18.56-6.21l1.44-5.12c5.03,1.15,11.42,3.3,19.07,6.5l-1.95,4.83Zm4.92,9.1l5.15.79c-.69,15.39-3.3,29.62-7.66,42.62l-4.97-1.7c4.38-12.9,6.86-26.87,7.49-41.71Zm44.61-58.83l3.92,13.88,12.69-3.58,18.97,67.2-58.78,16.59-18.97-67.2,13.68-3.86-3.92-13.88-17.25,4.87-1.43-5.05,65.92-18.61,1.43,5.06-16.26,4.59Zm-26.74,58.81c1.51-3.74,2.44-6.9,2.71-9.75.52-4.96-.12-10.67-1.89-16.91l-1.12-3.96-8.62,2.43,10.69,37.86,48.67-13.74-3.39-11.99c-2.99,1.16-11.95,3.91-26.72,8.08l-7.44-26.37-8.13,2.29,1.12,3.96c3.02,10.71,2.65,20.76-.94,30.02l-4.93-1.92Zm7.51-53.38l-8.13,2.29,3.92,13.88,8.13-2.29-3.92-13.88Zm-.37,82.08l48.67-13.74-3.95-13.98-48.67,13.74,3.95,13.98Zm24.97-68.48l5.99,21.21c3.67-1.04,6.12-1.83,7.55-2.45l-5.9-20.91-7.63,2.16Z" style="fill:#fff; stroke:#fff; stroke-linecap:round; stroke-linejoin:round; stroke-width:12px;"/><path d="m387.42,21.4l10.08,70.56-76.57,10.94-.87-6.12,52.61-7.52-8.33-58.32-52,7.43-.87-6.12,75.96-10.86Zm-6.31-12.83c1.05.79,1.59,1.65,1.78,2.97.17,1.22-.09,2.3-.89,3.25-.79,1.05-1.73,1.7-2.96,1.88-1.22.17-2.21-.2-3.26-.99-1.03-.68-1.69-1.63-1.86-2.85-.19-1.33.19-2.32.98-3.36.8-.95,1.66-1.49,2.88-1.66,1.22-.17,2.3.09,3.34.77Zm13.81,1.25c.19,1.33-.07,2.4-.87,3.35-.68,1.03-1.65,1.59-2.97,1.78-1.33.19-2.32-.19-3.26-.99-1.03-.68-1.59-1.65-1.76-2.87-.19-1.33.09-2.3.87-3.35.7-.93,1.56-1.47,2.88-1.66,2.96-.42,4.71.89,5.11,3.74Z" style="fill:#fff; stroke:#fff; stroke-linecap:round; stroke-linejoin:round; stroke-width:12px;"/><path d="m414.76,54.35l-.2-6.79,69.52-2.06.2,6.8-69.52,2.06Z" style="fill:#fff; stroke:#fff; stroke-linecap:round; stroke-linejoin:round; stroke-width:12px;"/><path d="m535.44,64.64c-10.17,14.02-25.93,23.45-47.01,28.73l-1.7-5.89c8.8-2.13,16.74-5.25,23.6-9.25l2.99-47.6,24.16,1.52-2.04,32.48Zm39.21-50.89c-3.41,18.16-14.05,31.42-31.79,39.49l-2.95-5.65c13.37-5.87,22.12-15.33,26.23-28.28l-78.44-4.92.38-6.07,86.56,5.43Z" style="fill:#fff; stroke:#fff; stroke-linecap:round; stroke-linejoin:round; stroke-width:12px;"/><path d="m661.37,79.03c-15.64,17.29-39.46,24.66-71.39,21.88l.36-6.11c17.61,1.58,32.31.12,43.91-4.5l6.18-34.58-56.27-10.05,1.05-5.88,80.61,14.4-4.44,24.84Zm2.02-44.11l-67.53-12.06,1.05-5.88,67.53,12.06-1.05,5.88Z" style="fill:#fff; stroke:#fff; stroke-linecap:round; stroke-linejoin:round; stroke-width:12px;"/><path d="m753.46,103.85c-9.23,7.81-18.01,13.16-26.33,15.64-12.76,3.9-28.43,3.99-47.1.23l.99-5.95c18.06,3.68,33,3.48,44.69-.44l13.77-44.25-45.73-14.23-8.02,25.77-6.69-2.08,9.79-31.47,33.04,10.28,5.26-16.91,7.08,2.2-5.26,16.91,34.91,10.87-10.41,33.44Z" style="fill:#fff; stroke:#fff; stroke-linecap:round; stroke-linejoin:round; stroke-width:12px;"/><path d="m846.11,133.34c-14.02,8.94-28.89,13.85-44.9,14.83-14.26.88-29.95-1.51-47.12-7.08l1.66-6.04c22.38,7.31,42.51,8.69,60.21,4.29l18.1-39.06,22.52,10.44-10.48,22.61Zm-41.79-31.06c-4.53-9.82-11.15-20.04-19.49-30.94l5.29-3.57c8.56,10.44,15.28,21.16,20.16,31.7l-5.95,2.8Z" style="fill:#fff; stroke:#fff; stroke-linecap:round; stroke-linejoin:round; stroke-width:12px;"/><path d="m912.21,194.08c-6.72-12.5-15.5-25.25-26.32-38.45l-28.54,43.73-19.93-13,49.37-75.65,19.93,13-17.17,26.31c11.42,13.6,20.81,27.11,28.2,40.66l-5.54,3.4Zm18.65-46.86c.27,1.28-.09,2.4-.77,3.44-.67,1.04-1.5,1.73-2.78,2-1.28.27-2.46,0-3.49-.68-1.04-.67-1.67-1.58-1.94-2.87s.03-2.31.71-3.35c.68-1.04,1.55-1.81,2.84-2.08,1.28-.27,2.31.04,3.35.71,1.04.68,1.82,1.55,2.08,2.84Zm10.18,6.64c.18,1.23-.09,2.4-.77,3.44-.68,1.03-1.58,1.67-2.78,2-1.28.27-2.37.05-3.41-.62-1.04-.67-1.67-1.58-1.94-2.87-.18-1.23-.05-2.37.62-3.41.67-1.04,1.72-1.7,2.92-2.03,1.28-.27,2.31.03,3.35.71,1.04.67,1.73,1.5,2,2.78Z" style="fill:#fff; stroke:#fff; stroke-linecap:round; stroke-linejoin:round; stroke-width:12px;"/><path d="m115.54,182.44l-62,41.63L6,153.27l62-41.63,47.54,70.8Zm-60.15-55.76l-30.78,20.67,18.55,27.62,30.78-20.67-18.55-27.62Zm10.67,82.41l30.78-20.67-19.87-29.59-30.78,20.67,19.87,29.59Z" style="fill:#00ac9e; stroke:#00ac9e; stroke-linecap:round; stroke-linejoin:round; stroke-width:2px;"/><path d="m204.12,120.5l-1.72,5.19c-18.67-6.23-35.6-15.63-50.98-28.33l16.77,36.96,14.07-6.39,2.21,4.88-14.07,6.39,7.75,17.07-18.57,8.43-7.75-17.07-14.44,6.56-2.21-4.88,14.44-6.56-16.77-36.96c-.32,19.49-4.26,38.47-11.6,57.19l-5.13-2.08c7.53-18.8,11.28-37.7,11.26-56.69l-29.45,13.37-2.26-4.97,33.39-15.16-8.26-18.2,18.57-8.43,8.26,18.2,33.67-15.28,2.26,4.97-29.73,13.5c14.6,12.49,31.35,21.97,50.29,28.3Z" style="fill:#00ac9e; stroke:#00ac9e; stroke-linecap:round; stroke-linejoin:round; stroke-width:2px;"/><path d="m216.29,59.16c-6.61-2.95-12.93-5.23-18.95-6.85l1.67-5.07c5.7,1.6,12.11,3.86,19.2,6.99l-1.93,4.93Zm3.95,25.75c-7.39-3.05-13.65-5.14-18.56-6.21l1.44-5.12c5.03,1.15,11.42,3.3,19.07,6.5l-1.95,4.83Zm4.92,9.1l5.15.79c-.69,15.39-3.3,29.62-7.66,42.62l-4.97-1.7c4.38-12.9,6.86-26.87,7.49-41.71Zm44.61-58.83l3.92,13.88,12.69-3.58,18.97,67.2-58.78,16.59-18.97-67.2,13.68-3.86-3.92-13.88-17.25,4.87-1.43-5.05,65.92-18.61,1.43,5.06-16.26,4.59Zm-26.74,58.81c1.51-3.74,2.44-6.9,2.71-9.75.52-4.96-.12-10.67-1.89-16.91l-1.12-3.96-8.62,2.43,10.69,37.86,48.67-13.74-3.39-11.99c-2.99,1.16-11.95,3.91-26.72,8.08l-7.44-26.37-8.13,2.29,1.12,3.96c3.02,10.71,2.65,20.76-.94,30.02l-4.93-1.92Zm7.51-53.38l-8.13,2.29,3.92,13.88,8.13-2.29-3.92-13.88Zm-.37,82.08l48.67-13.74-3.95-13.98-48.67,13.74,3.95,13.98Zm24.97-68.48l5.99,21.21c3.67-1.04,6.12-1.83,7.55-2.45l-5.9-20.91-7.63,2.16Z" style="fill:#00ac9e; stroke:#00ac9e; stroke-linecap:round; stroke-linejoin:round; stroke-width:2px;"/><path d="m387.42,21.4l10.08,70.56-76.57,10.94-.87-6.12,52.61-7.52-8.33-58.32-52,7.43-.87-6.12,75.96-10.86Zm-6.31-12.83c1.05.79,1.59,1.65,1.78,2.97.17,1.22-.09,2.3-.89,3.25-.79,1.05-1.73,1.7-2.96,1.88-1.22.17-2.21-.2-3.26-.99-1.03-.68-1.69-1.63-1.86-2.85-.19-1.33.19-2.32.98-3.36.8-.95,1.66-1.49,2.88-1.66,1.22-.17,2.3.09,3.34.77Zm13.81,1.25c.19,1.33-.07,2.4-.87,3.35-.68,1.03-1.65,1.59-2.97,1.78-1.33.19-2.32-.19-3.26-.99-1.03-.68-1.59-1.65-1.76-2.87-.19-1.33.09-2.3.87-3.35.7-.93,1.56-1.47,2.88-1.66,2.96-.42,4.71.89,5.11,3.74Z" style="fill:#00ac9e; stroke:#00ac9e; stroke-linecap:round; stroke-linejoin:round; stroke-width:2px;"/><path d="m414.76,54.35l-.2-6.79,69.52-2.06.2,6.79-69.52,2.06Z" style="fill:#00ac9e; stroke:#00ac9e; stroke-linecap:round; stroke-linejoin:round; stroke-width:2px;"/><path d="m535.44,64.64c-10.17,14.02-25.93,23.45-47.01,28.73l-1.7-5.89c8.8-2.13,16.74-5.25,23.6-9.25l2.99-47.6,24.16,1.52-2.04,32.48Zm39.21-50.89c-3.41,18.16-14.05,31.42-31.79,39.49l-2.95-5.65c13.37-5.87,22.12-15.33,26.23-28.28l-78.44-4.92.38-6.07,86.56,5.43Z" style="fill:#00ac9e; stroke:#00ac9e; stroke-linecap:round; stroke-linejoin:round; stroke-width:2px;"/><path d="m661.37,79.03c-15.64,17.29-39.46,24.66-71.39,21.88l.36-6.11c17.61,1.58,32.31.12,43.91-4.5l6.18-34.58-56.27-10.05,1.05-5.88,80.61,14.4-4.44,24.84Zm2.02-44.11l-67.53-12.06,1.05-5.88,67.53,12.06-1.05,5.88Z" style="fill:#00ac9e; stroke:#00ac9e; stroke-linecap:round; stroke-linejoin:round; stroke-width:2px;"/><path d="m753.46,103.85c-9.23,7.81-18.01,13.16-26.33,15.64-12.76,3.9-28.43,3.99-47.1.23l.99-5.95c18.06,3.68,33,3.48,44.69-.44l13.77-44.25-45.73-14.23-8.02,25.77-6.69-2.08,9.79-31.47,33.04,10.28,5.26-16.91,7.08,2.2-5.26,16.91,34.91,10.87-10.41,33.44Z" style="fill:#00ac9e; stroke:#00ac9e; stroke-linecap:round; stroke-linejoin:round; stroke-width:2px;"/><path d="m846.11,133.34c-14.02,8.94-28.89,13.85-44.9,14.83-14.26.88-29.95-1.51-47.12-7.08l1.66-6.04c22.38,7.31,42.51,8.69,60.21,4.29l18.1-39.06,22.52,10.44-10.48,22.61Zm-41.79-31.06c-4.53-9.82-11.15-20.04-19.49-30.94l5.29-3.57c8.56,10.44,15.28,21.16,20.16,31.7l-5.95,2.8Z" style="fill:#00ac9e; stroke:#00ac9e; stroke-linecap:round; stroke-linejoin:round; stroke-width:2px;"/><path d="m912.21,194.08c-6.72-12.5-15.5-25.25-26.32-38.45l-28.54,43.73-19.93-13,49.37-75.65,19.93,13-17.17,26.31c11.42,13.6,20.81,27.11,28.2,40.66l-5.54,3.4Zm18.65-46.86c.27,1.28-.09,2.4-.77,3.44-.67,1.04-1.5,1.73-2.78,2-1.28.27-2.46,0-3.49-.68-1.04-.67-1.67-1.58-1.94-2.87s.03-2.31.71-3.35c.68-1.04,1.55-1.81,2.84-2.08,1.28-.27,2.31.04,3.35.71,1.04.68,1.82,1.55,2.08,2.84Zm10.18,6.64c.18,1.23-.09,2.4-.77,3.44-.68,1.03-1.58,1.67-2.78,2-1.28.27-2.37.05-3.41-.62-1.04-.67-1.67-1.58-1.94-2.87-.18-1.23-.05-2.37.62-3.41.67-1.04,1.72-1.7,2.92-2.03,1.28-.27,2.31.03,3.35.71,1.04.67,1.73,1.5,2,2.78Z" style="fill:#00ac9e; stroke:#00ac9e; stroke-linecap:round; stroke-linejoin:round; stroke-width:2px;"/><path d="m366.12,197.9h27.38v5.21h-52.9v-5.21l44.16-54.05c-3.36-3.71-8.92-5.65-16.69-5.65-13.51,0-20.31,6.09-20.49,18.02l-5.92.09c.09-7.77,2.65-13.69,7.6-17.75,4.59-3.71,10.86-5.56,18.81-5.56,7.42,0,13.51,1.59,18.28,4.95,5.39,3.8,8.13,9.27,8.13,16.43,0,3.71-.71,7.15-2.21,10.16-1.24,2.47-3.18,5.39-5.83,8.66l-20.31,24.73Z" style="fill:#eb6887; stroke:#eb6887; stroke-linecap:round; stroke-linejoin:round; stroke-width:10.91px;"/><path d="m422.72,197.37c-6.89-6.09-10.33-15.72-10.33-28.97,0-10.33,2.12-18.63,6.45-24.73,4.95-7.15,12.45-10.69,22.34-10.69,7.51,0,13.69,2.12,18.46,6.36,6.89,6.01,10.33,15.72,10.33,29.06s-3.44,22.87-10.33,28.97c-4.86,4.33-10.95,6.45-18.46,6.45s-13.51-2.12-18.46-6.45Zm.26-8.13c3.89,6.27,9.98,9.36,18.19,9.36s14.31-3.09,18.19-9.45c3.18-5.12,4.77-12.01,4.77-20.75s-1.59-15.72-4.77-20.84c-3.89-6.36-9.98-9.45-18.19-9.45s-14.31,3.09-18.19,9.45c-3.18,5.12-4.77,12.1-4.77,20.84s1.59,15.72,4.77,20.84Z" style="fill:#eb6887; stroke:#eb6887; stroke-linecap:round; stroke-linejoin:round; stroke-width:10.91px;"/><path d="m514.48,197.9h27.38v5.21h-52.9v-5.21l44.16-54.05c-3.36-3.71-8.92-5.65-16.69-5.65-13.51,0-20.31,6.09-20.49,18.02l-5.92.09c.09-7.77,2.65-13.69,7.59-17.75,4.59-3.71,10.86-5.56,18.81-5.56,7.42,0,13.51,1.59,18.28,4.95,5.39,3.8,8.12,9.27,8.12,16.43,0,3.71-.71,7.15-2.21,10.16-1.24,2.47-3.18,5.39-5.83,8.66l-20.31,24.73Z" style="fill:#eb6887; stroke:#eb6887; stroke-linecap:round; stroke-linejoin:round; stroke-width:10.91px;"/><path d="m615.51,183.76c0,6.98-2.83,12.19-8.65,15.63-4.77,3-10.95,4.42-18.28,4.42-7.77,0-13.87-1.5-18.46-4.68-5.21-3.62-7.95-9.18-7.95-16.6h5.83c.09,10.69,6.89,16.07,20.58,16.07,5.74,0,10.42-1.06,14.13-3.09,4.59-2.56,6.89-6.45,6.89-11.75,0-9.45-6.71-14.04-20.05-14.04h-6.98v-5.12h7.6c12.28,0,18.37-4.33,18.37-12.89,0-4.95-2.21-8.48-6.36-10.77-3.44-1.85-7.68-2.74-12.98-2.74-12.81,0-19.52,4.86-19.78,14.48l-5.83.09c.18-6.98,2.83-12.1,8.04-15.46,4.42-2.91,10.25-4.33,17.58-4.33,6.89,0,12.63,1.32,17.04,4.15,5.48,3.36,8.13,8.12,8.13,14.57,0,7.86-3.71,12.89-11.04,15.37,2.65.79,4.68,1.85,6.36,3.36,3.8,3.44,5.83,7.86,5.83,13.34Z" style="fill:#eb6887; stroke:#eb6887; stroke-linecap:round; stroke-linejoin:round; stroke-width:10.91px;"/><path d="m366.12,192.83h27.38v5.21h-52.9v-5.21l44.16-54.05c-3.36-3.71-8.92-5.65-16.69-5.65-13.51,0-20.31,6.09-20.49,18.02l-5.92.09c.09-7.77,2.65-13.69,7.6-17.75,4.59-3.71,10.86-5.56,18.81-5.56,7.42,0,13.51,1.59,18.28,4.95,5.39,3.8,8.13,9.27,8.13,16.43,0,3.71-.71,7.15-2.21,10.16-1.24,2.47-3.18,5.39-5.83,8.66l-20.31,24.73Z" style="fill:#fff; stroke:#fff; stroke-linecap:round; stroke-linejoin:round; stroke-width:10.91px;"/><path d="m422.72,192.3c-6.89-6.09-10.33-15.72-10.33-28.97,0-10.33,2.12-18.63,6.45-24.73,4.95-7.15,12.45-10.69,22.34-10.69,7.51,0,13.69,2.12,18.46,6.36,6.89,6.01,10.33,15.72,10.33,29.06s-3.44,22.87-10.33,28.97c-4.86,4.33-10.95,6.45-18.46,6.45s-13.51-2.12-18.46-6.45Zm.26-8.13c3.89,6.27,9.98,9.36,18.19,9.36s14.31-3.09,18.19-9.45c3.18-5.12,4.77-12.01,4.77-20.75s-1.59-15.72-4.77-20.84c-3.89-6.36-9.98-9.45-18.19-9.45s-14.31,3.09-18.19,9.45c-3.18,5.12-4.77,12.1-4.77,20.84s1.59,15.72,4.77,20.84Z" style="fill:#fff; stroke:#fff; stroke-linecap:round; stroke-linejoin:round; stroke-width:10.91px;"/><path d="m514.48,192.83h27.38v5.21h-52.9v-5.21l44.16-54.05c-3.36-3.71-8.92-5.65-16.69-5.65-13.51,0-20.31,6.09-20.49,18.02l-5.92.09c.09-7.77,2.65-13.69,7.59-17.75,4.59-3.71,10.86-5.56,18.81-5.56,7.42,0,13.51,1.59,18.28,4.95,5.39,3.8,8.12,9.27,8.12,16.43,0,3.71-.71,7.15-2.21,10.16-1.24,2.47-3.18,5.39-5.83,8.66l-20.31,24.73Z" style="fill:#fff; stroke:#fff; stroke-linecap:round; stroke-linejoin:round; stroke-width:10.91px;"/><path d="m615.51,178.7c0,6.98-2.83,12.19-8.65,15.63-4.77,3-10.95,4.42-18.28,4.42-7.77,0-13.87-1.5-18.46-4.68-5.21-3.62-7.95-9.18-7.95-16.6h5.83c.09,10.69,6.89,16.07,20.58,16.07,5.74,0,10.42-1.06,14.13-3.09,4.59-2.56,6.89-6.45,6.89-11.75,0-9.45-6.71-14.04-20.05-14.04h-6.98v-5.12h7.6c12.28,0,18.37-4.33,18.37-12.89,0-4.95-2.21-8.48-6.36-10.77-3.44-1.85-7.68-2.74-12.98-2.74-12.81,0-19.52,4.86-19.78,14.48l-5.83.09c.18-6.98,2.83-12.1,8.04-15.46,4.42-2.91,10.25-4.33,17.58-4.33,6.89,0,12.63,1.32,17.04,4.15,5.48,3.36,8.13,8.12,8.13,14.57,0,7.86-3.71,12.89-11.04,15.37,2.65.79,4.68,1.85,6.36,3.36,3.8,3.44,5.83,7.86,5.83,13.34Z" style="fill:#fff; stroke:#fff; stroke-linecap:round; stroke-linejoin:round; stroke-width:10.91px;"/><path d="m366.12,192.83h27.38v5.21h-52.9v-5.21l44.16-54.05c-3.36-3.71-8.92-5.65-16.69-5.65-13.51,0-20.31,6.09-20.49,18.02l-5.92.09c.09-7.77,2.65-13.69,7.6-17.75,4.59-3.71,10.86-5.56,18.81-5.56,7.42,0,13.51,1.59,18.28,4.95,5.39,3.8,8.13,9.27,8.13,16.43,0,3.71-.71,7.15-2.21,10.16-1.24,2.47-3.18,5.39-5.83,8.66l-20.31,24.73Z" style="fill:#00ac9e; stroke:#00ac9e; stroke-linecap:round; stroke-linejoin:round; stroke-width:1.98px;"/><path d="m422.72,192.3c-6.89-6.09-10.33-15.72-10.33-28.97,0-10.33,2.12-18.63,6.45-24.73,4.95-7.15,12.45-10.69,22.34-10.69,7.51,0,13.69,2.12,18.46,6.36,6.89,6.01,10.33,15.72,10.33,29.06s-3.44,22.87-10.33,28.97c-4.86,4.33-10.95,6.45-18.46,6.45s-13.51-2.12-18.46-6.45Zm.26-8.13c3.89,6.27,9.98,9.36,18.19,9.36s14.31-3.09,18.19-9.45c3.18-5.12,4.77-12.01,4.77-20.75s-1.59-15.72-4.77-20.84c-3.89-6.36-9.98-9.45-18.19-9.45s-14.31,3.09-18.19,9.45c-3.18,5.12-4.77,12.1-4.77,20.84s1.59,15.72,4.77,20.84Z" style="fill:#00ac9e; stroke:#00ac9e; stroke-linecap:round; stroke-linejoin:round; stroke-width:1.98px;"/><path d="m514.48,192.83h27.38v5.21h-52.9v-5.21l44.16-54.05c-3.36-3.71-8.92-5.65-16.69-5.65-13.51,0-20.31,6.09-20.49,18.02l-5.92.09c.09-7.77,2.65-13.69,7.59-17.75,4.59-3.71,10.86-5.56,18.81-5.56,7.42,0,13.51,1.59,18.28,4.95,5.39,3.8,8.12,9.27,8.12,16.43,0,3.71-.71,7.15-2.21,10.16-1.24,2.47-3.18,5.39-5.83,8.66l-20.31,24.73Z" style="fill:#00ac9e; stroke:#00ac9e; stroke-linecap:round; stroke-linejoin:round; stroke-width:1.98px;"/><path d="m615.51,178.7c0,6.98-2.83,12.19-8.65,15.63-4.77,3-10.95,4.42-18.28,4.42-7.77,0-13.87-1.5-18.46-4.68-5.21-3.62-7.95-9.18-7.95-16.6h5.83c.09,10.69,6.89,16.07,20.58,16.07,5.74,0,10.42-1.06,14.13-3.09,4.59-2.56,6.89-6.45,6.89-11.75,0-9.45-6.71-14.04-20.05-14.04h-6.98v-5.12h7.6c12.28,0,18.37-4.33,18.37-12.89,0-4.95-2.21-8.48-6.36-10.77-3.44-1.85-7.68-2.74-12.98-2.74-12.81,0-19.52,4.86-19.78,14.48l-5.83.09c.18-6.98,2.83-12.1,8.04-15.46,4.42-2.91,10.25-4.33,17.58-4.33,6.89,0,12.63,1.32,17.04,4.15,5.48,3.36,8.13,8.12,8.13,14.57,0,7.86-3.71,12.89-11.04,15.37,2.65.79,4.68,1.85,6.36,3.36,3.8,3.44,5.83,7.86,5.83,13.34Z" style="fill:#00ac9e; stroke:#00ac9e; stroke-linecap:round; stroke-linejoin:round; stroke-width:1.98px;"/><path d="m952.39,195.32c-2.74,2.34-6.74,2.56-9.74.56-1.79-1.2-3.01-3.03-3.42-5.14-.42-2.12.01-4.27,1.22-6.06.41-.62.91-1.17,1.47-1.65,2.74-2.33,6.74-2.56,9.74-.55,3.69,2.48,4.68,7.51,2.2,11.2-.41.62-.91,1.17-1.47,1.65Zm-9.49-11.14c-.45.39-.86.84-1.19,1.34-.97,1.45-1.33,3.2-.99,4.92.34,1.72,1.33,3.2,2.78,4.18,2.93,1.96,7.12,1.16,9.1-1.79,2.01-3,1.21-7.08-1.79-9.1-2.43-1.63-5.68-1.45-7.91.45Z" style="fill:#eb6887; stroke:#eb6887; stroke-linecap:round; stroke-linejoin:round; stroke-width:6px;"/><path d="m946.76,183.43l3.74,2.51c.88.59,1.35,1.14,1.51,1.82.17.65.03,1.23-.44,1.93-.51.77-1.05,1.16-1.68,1.23-.43.05-.8-.03-1.53-.32l.2,4.77-1.86-1.25v-4.52s-1.38-.93-1.38-.93l-2.09,3.12-1.43-.96,4.96-7.39Zm1.56,5.59c.71.48,1.38.39,1.79-.23.44-.65.28-1.22-.47-1.73l-2.23-1.5-1.32,1.96,2.23,1.5Z" style="fill:#eb6887; stroke:#eb6887; stroke-linecap:round; stroke-linejoin:round; stroke-width:6px;"/><path d="m953.68,193.44c-2.74,2.34-6.74,2.56-9.74.56-1.79-1.2-3.01-3.03-3.42-5.14-.42-2.12.01-4.27,1.22-6.06.41-.62.91-1.17,1.47-1.65,2.74-2.33,6.74-2.56,9.74-.55,3.69,2.48,4.68,7.51,2.2,11.2-.41.62-.91,1.17-1.47,1.65Zm-9.49-11.14c-.45.39-.86.84-1.19,1.34-.98,1.45-1.33,3.2-.99,4.92.34,1.72,1.33,3.2,2.78,4.18,2.93,1.96,7.12,1.16,9.1-1.79,2.01-3,1.21-7.08-1.79-9.1-2.43-1.63-5.68-1.45-7.91.45Z" style="fill:#fff; stroke:#fff; stroke-linecap:round; stroke-linejoin:round; stroke-width:6px;"/><path d="m948.05,181.55l3.74,2.51c.88.59,1.35,1.14,1.51,1.82.17.65.03,1.23-.44,1.93-.51.77-1.05,1.16-1.68,1.23-.43.05-.8-.03-1.53-.32l.2,4.77-1.86-1.25v-4.52s-1.38-.93-1.38-.93l-2.09,3.12-1.43-.96,4.96-7.39Zm1.56,5.59c.71.48,1.37.39,1.79-.23.44-.65.28-1.22-.47-1.73l-2.23-1.5-1.32,1.96,2.23,1.5Z" style="fill:#fff; stroke:#fff; stroke-linecap:round; stroke-linejoin:round; stroke-width:6px;"/><path d="m953.68,193.44c-2.74,2.34-6.74,2.56-9.74.56-1.79-1.2-3.01-3.03-3.42-5.14-.42-2.12.01-4.27,1.22-6.06.41-.62.91-1.17,1.47-1.65,2.74-2.33,6.74-2.56,9.74-.55,3.69,2.48,4.68,7.51,2.2,11.2-.41.62-.91,1.17-1.47,1.65Zm-9.49-11.14c-.45.39-.86.84-1.19,1.34-.98,1.45-1.33,3.2-.99,4.92.34,1.72,1.33,3.2,2.78,4.18,2.93,1.96,7.12,1.16,9.1-1.79,2.01-3,1.21-7.08-1.79-9.1-2.43-1.63-5.68-1.45-7.91.45Z" style="fill:#00ac9e;"/><path d="m948.05,181.55l3.74,2.51c.88.59,1.35,1.14,1.51,1.82.17.65.03,1.23-.44,1.93-.51.77-1.05,1.16-1.68,1.23-.43.05-.8-.03-1.53-.32l.2,4.77-1.86-1.25v-4.52s-1.38-.93-1.38-.93l-2.09,3.12-1.43-.96,4.96-7.39Zm1.56,5.59c.71.48,1.37.39,1.79-.23.44-.65.28-1.22-.47-1.73l-2.23-1.5-1.32,1.96,2.23,1.5Z" style="fill:#00ac9e;"/></g></svg>